<mxfile host="app.diagrams.net" modified="2024-04-25T01:32:51.899Z" agent="Mozilla/5.0 (Windows NT 10.0; Win64; x64) AppleWebKit/537.36 (KHTML, like Gecko) Chrome/124.0.0.0 Safari/537.36" etag="HGWA6vlet42HTYFuyhuy" version="24.2.8" type="github">
  <diagram id="6a731a19-8d31-9384-78a2-239565b7b9f0" name="Page-1">
    <mxGraphModel dx="2962" dy="1750" grid="1" gridSize="10" guides="1" tooltips="1" connect="1" arrows="1" fold="1" page="1" pageScale="1" pageWidth="1169" pageHeight="827" background="none" math="0" shadow="0">
      <root>
        <mxCell id="0" />
        <mxCell id="1" parent="0" />
        <mxCell id="o7lvHpTq__VK10k64R-0-1801" value="&lt;p data-pm-slice=&quot;1 1 [&amp;quot;table&amp;quot;,{&amp;quot;isNumberColumnEnabled&amp;quot;:false,&amp;quot;layout&amp;quot;:&amp;quot;default&amp;quot;,&amp;quot;__autoSize&amp;quot;:false,&amp;quot;localId&amp;quot;:&amp;quot;bbb435ce-e84e-4e3d-9dc8-f1c0fbe65b8b&amp;quot;,&amp;quot;width&amp;quot;:760},&amp;quot;tableRow&amp;quot;,null,&amp;quot;tableCell&amp;quot;,{&amp;quot;colspan&amp;quot;:1,&amp;quot;rowspan&amp;quot;:1,&amp;quot;colwidth&amp;quot;:null,&amp;quot;background&amp;quot;:null}]&quot;&gt;&lt;br&gt;&lt;/p&gt;" style="rounded=1;whiteSpace=wrap;html=1;shadow=0;labelBackgroundColor=none;strokeColor=none;strokeWidth=3;fillColor=#1699D3;fontFamily=Helvetica;fontSize=16;fontColor=#FFFFFF;align=center;fontStyle=1;spacing=5;arcSize=7;perimeterSpacing=2;" vertex="1" parent="1">
          <mxGeometry x="-340" y="60" width="680" height="80" as="geometry" />
        </mxCell>
        <mxCell id="o7lvHpTq__VK10k64R-0-1803" value="" style="edgeStyle=orthogonalEdgeStyle;rounded=0;orthogonalLoop=1;jettySize=auto;html=1;entryX=0.5;entryY=0;entryDx=0;entryDy=0;" edge="1" parent="1" source="o7lvHpTq__VK10k64R-0-1800" target="o7lvHpTq__VK10k64R-0-1801">
          <mxGeometry relative="1" as="geometry" />
        </mxCell>
        <mxCell id="o7lvHpTq__VK10k64R-0-1800" value="&lt;p data-pm-slice=&quot;1 1 [&amp;quot;table&amp;quot;,{&amp;quot;isNumberColumnEnabled&amp;quot;:false,&amp;quot;layout&amp;quot;:&amp;quot;default&amp;quot;,&amp;quot;__autoSize&amp;quot;:false,&amp;quot;localId&amp;quot;:&amp;quot;bbb435ce-e84e-4e3d-9dc8-f1c0fbe65b8b&amp;quot;,&amp;quot;width&amp;quot;:760},&amp;quot;tableRow&amp;quot;,null,&amp;quot;tableCell&amp;quot;,{&amp;quot;colspan&amp;quot;:1,&amp;quot;rowspan&amp;quot;:1,&amp;quot;colwidth&amp;quot;:null,&amp;quot;background&amp;quot;:null}]&quot;&gt;&lt;br&gt;&lt;/p&gt;" style="rounded=1;whiteSpace=wrap;html=1;shadow=0;labelBackgroundColor=none;strokeColor=none;strokeWidth=3;fillColor=#1699D3;fontFamily=Helvetica;fontSize=16;fontColor=#FFFFFF;align=center;fontStyle=1;spacing=5;arcSize=7;perimeterSpacing=2;" vertex="1" parent="1">
          <mxGeometry x="-300" y="-60" width="560" height="80" as="geometry" />
        </mxCell>
        <mxCell id="o7lvHpTq__VK10k64R-0-1795" value="" style="edgeStyle=orthogonalEdgeStyle;rounded=0;orthogonalLoop=1;jettySize=auto;html=1;" edge="1" parent="1" source="1749" target="o7lvHpTq__VK10k64R-0-1789">
          <mxGeometry relative="1" as="geometry" />
        </mxCell>
        <mxCell id="1749" value="&lt;p data-pm-slice=&quot;1 1 [&amp;quot;table&amp;quot;,{&amp;quot;isNumberColumnEnabled&amp;quot;:false,&amp;quot;layout&amp;quot;:&amp;quot;default&amp;quot;,&amp;quot;__autoSize&amp;quot;:false,&amp;quot;localId&amp;quot;:&amp;quot;bbb435ce-e84e-4e3d-9dc8-f1c0fbe65b8b&amp;quot;,&amp;quot;width&amp;quot;:760},&amp;quot;tableRow&amp;quot;,null,&amp;quot;tableCell&amp;quot;,{&amp;quot;colspan&amp;quot;:1,&amp;quot;rowspan&amp;quot;:1,&amp;quot;colwidth&amp;quot;:null,&amp;quot;background&amp;quot;:null}]&quot;&gt;matterport_data_downloader&lt;/p&gt;" style="rounded=1;whiteSpace=wrap;html=1;shadow=0;labelBackgroundColor=none;strokeColor=none;strokeWidth=3;fillColor=#2F5B7C;fontFamily=Helvetica;fontSize=16;fontColor=#FFFFFF;align=center;fontStyle=1;spacing=5;arcSize=7;perimeterSpacing=2;" parent="1" vertex="1">
          <mxGeometry x="-120" y="-280" width="240" height="40" as="geometry" />
        </mxCell>
        <mxCell id="o7lvHpTq__VK10k64R-0-1779" value="&lt;p data-pm-slice=&quot;1 1 [&amp;quot;table&amp;quot;,{&amp;quot;isNumberColumnEnabled&amp;quot;:false,&amp;quot;layout&amp;quot;:&amp;quot;default&amp;quot;,&amp;quot;__autoSize&amp;quot;:false,&amp;quot;localId&amp;quot;:&amp;quot;bbb435ce-e84e-4e3d-9dc8-f1c0fbe65b8b&amp;quot;,&amp;quot;width&amp;quot;:760},&amp;quot;tableRow&amp;quot;,null,&amp;quot;tableCell&amp;quot;,{&amp;quot;colspan&amp;quot;:1,&amp;quot;rowspan&amp;quot;:1,&amp;quot;colwidth&amp;quot;:null,&amp;quot;background&amp;quot;:null}]&quot;&gt;fbx_importer&lt;/p&gt;" style="rounded=1;whiteSpace=wrap;html=1;shadow=0;labelBackgroundColor=none;strokeColor=none;strokeWidth=3;fillColor=#2F5B7C;fontFamily=Helvetica;fontSize=16;fontColor=#FFFFFF;align=center;fontStyle=1;spacing=5;arcSize=7;perimeterSpacing=2;" vertex="1" parent="1">
          <mxGeometry x="-280" y="-40" width="120" height="40" as="geometry" />
        </mxCell>
        <mxCell id="o7lvHpTq__VK10k64R-0-1780" value="&lt;p data-pm-slice=&quot;1 1 [&amp;quot;table&amp;quot;,{&amp;quot;isNumberColumnEnabled&amp;quot;:false,&amp;quot;layout&amp;quot;:&amp;quot;default&amp;quot;,&amp;quot;__autoSize&amp;quot;:false,&amp;quot;localId&amp;quot;:&amp;quot;bbb435ce-e84e-4e3d-9dc8-f1c0fbe65b8b&amp;quot;,&amp;quot;width&amp;quot;:760},&amp;quot;tableRow&amp;quot;,null,&amp;quot;tableCell&amp;quot;,{&amp;quot;colspan&amp;quot;:1,&amp;quot;rowspan&amp;quot;:1,&amp;quot;colwidth&amp;quot;:null,&amp;quot;background&amp;quot;:null}]&quot;&gt;image_importer&lt;/p&gt;" style="rounded=1;whiteSpace=wrap;html=1;shadow=0;labelBackgroundColor=none;strokeColor=none;strokeWidth=3;fillColor=#2F5B7C;fontFamily=Helvetica;fontSize=16;fontColor=#FFFFFF;align=center;fontStyle=1;spacing=5;arcSize=7;perimeterSpacing=2;" vertex="1" parent="1">
          <mxGeometry x="-120" y="-40" width="160" height="40" as="geometry" />
        </mxCell>
        <mxCell id="o7lvHpTq__VK10k64R-0-1781" value="&lt;p data-pm-slice=&quot;1 1 [&amp;quot;table&amp;quot;,{&amp;quot;isNumberColumnEnabled&amp;quot;:false,&amp;quot;layout&amp;quot;:&amp;quot;default&amp;quot;,&amp;quot;__autoSize&amp;quot;:false,&amp;quot;localId&amp;quot;:&amp;quot;bbb435ce-e84e-4e3d-9dc8-f1c0fbe65b8b&amp;quot;,&amp;quot;width&amp;quot;:760},&amp;quot;tableRow&amp;quot;,null,&amp;quot;tableCell&amp;quot;,{&amp;quot;colspan&amp;quot;:1,&amp;quot;rowspan&amp;quot;:1,&amp;quot;colwidth&amp;quot;:null,&amp;quot;background&amp;quot;:null}]&quot;&gt;id_table_importer&lt;/p&gt;" style="rounded=1;whiteSpace=wrap;html=1;shadow=0;labelBackgroundColor=none;strokeColor=none;strokeWidth=3;fillColor=#2F5B7C;fontFamily=Helvetica;fontSize=16;fontColor=#FFFFFF;align=center;fontStyle=1;spacing=5;arcSize=7;perimeterSpacing=2;" vertex="1" parent="1">
          <mxGeometry x="80" y="-40" width="160" height="40" as="geometry" />
        </mxCell>
        <mxCell id="o7lvHpTq__VK10k64R-0-1782" value="&lt;p data-pm-slice=&quot;1 1 [&amp;quot;table&amp;quot;,{&amp;quot;isNumberColumnEnabled&amp;quot;:false,&amp;quot;layout&amp;quot;:&amp;quot;default&amp;quot;,&amp;quot;__autoSize&amp;quot;:false,&amp;quot;localId&amp;quot;:&amp;quot;bbb435ce-e84e-4e3d-9dc8-f1c0fbe65b8b&amp;quot;,&amp;quot;width&amp;quot;:760},&amp;quot;tableRow&amp;quot;,null,&amp;quot;tableCell&amp;quot;,{&amp;quot;colspan&amp;quot;:1,&amp;quot;rowspan&amp;quot;:1,&amp;quot;colwidth&amp;quot;:null,&amp;quot;background&amp;quot;:null}]&quot;&gt;home_tour_start_position_setter&lt;/p&gt;" style="rounded=1;whiteSpace=wrap;html=1;shadow=0;labelBackgroundColor=none;strokeColor=none;strokeWidth=3;fillColor=#2F5B7C;fontFamily=Helvetica;fontSize=16;fontColor=#FFFFFF;align=center;fontStyle=1;spacing=5;arcSize=7;perimeterSpacing=2;" vertex="1" parent="1">
          <mxGeometry x="-320" y="80" width="280" height="40" as="geometry" />
        </mxCell>
        <mxCell id="o7lvHpTq__VK10k64R-0-1799" value="" style="edgeStyle=orthogonalEdgeStyle;rounded=0;orthogonalLoop=1;jettySize=auto;html=1;exitX=0.5;exitY=1;exitDx=0;exitDy=0;" edge="1" parent="1" source="o7lvHpTq__VK10k64R-0-1801" target="o7lvHpTq__VK10k64R-0-1788">
          <mxGeometry relative="1" as="geometry" />
        </mxCell>
        <mxCell id="o7lvHpTq__VK10k64R-0-1783" value="&lt;p data-pm-slice=&quot;1 1 [&amp;quot;table&amp;quot;,{&amp;quot;isNumberColumnEnabled&amp;quot;:false,&amp;quot;layout&amp;quot;:&amp;quot;default&amp;quot;,&amp;quot;__autoSize&amp;quot;:false,&amp;quot;localId&amp;quot;:&amp;quot;bbb435ce-e84e-4e3d-9dc8-f1c0fbe65b8b&amp;quot;,&amp;quot;width&amp;quot;:760},&amp;quot;tableRow&amp;quot;,null,&amp;quot;tableCell&amp;quot;,{&amp;quot;colspan&amp;quot;:1,&amp;quot;rowspan&amp;quot;:1,&amp;quot;colwidth&amp;quot;:null,&amp;quot;background&amp;quot;:null}]&quot;&gt;tags_setter&lt;/p&gt;" style="rounded=1;whiteSpace=wrap;html=1;shadow=0;labelBackgroundColor=none;strokeColor=none;strokeWidth=3;fillColor=#2F5B7C;fontFamily=Helvetica;fontSize=16;fontColor=#FFFFFF;align=center;fontStyle=1;spacing=5;arcSize=7;perimeterSpacing=2;" vertex="1" parent="1">
          <mxGeometry y="80" width="120" height="40" as="geometry" />
        </mxCell>
        <mxCell id="o7lvHpTq__VK10k64R-0-1785" value="&lt;p data-pm-slice=&quot;1 1 [&amp;quot;table&amp;quot;,{&amp;quot;isNumberColumnEnabled&amp;quot;:false,&amp;quot;layout&amp;quot;:&amp;quot;default&amp;quot;,&amp;quot;__autoSize&amp;quot;:false,&amp;quot;localId&amp;quot;:&amp;quot;bbb435ce-e84e-4e3d-9dc8-f1c0fbe65b8b&amp;quot;,&amp;quot;width&amp;quot;:760},&amp;quot;tableRow&amp;quot;,null,&amp;quot;tableCell&amp;quot;,{&amp;quot;colspan&amp;quot;:1,&amp;quot;rowspan&amp;quot;:1,&amp;quot;colwidth&amp;quot;:null,&amp;quot;background&amp;quot;:null}]&quot;&gt;boundaries_setter&lt;/p&gt;" style="rounded=1;whiteSpace=wrap;html=1;shadow=0;labelBackgroundColor=none;strokeColor=none;strokeWidth=3;fillColor=#2F5B7C;fontFamily=Helvetica;fontSize=16;fontColor=#FFFFFF;align=center;fontStyle=1;spacing=5;arcSize=7;perimeterSpacing=2;" vertex="1" parent="1">
          <mxGeometry x="160" y="80" width="160" height="40" as="geometry" />
        </mxCell>
        <mxCell id="o7lvHpTq__VK10k64R-0-1787" value="&lt;p data-pm-slice=&quot;1 1 [&amp;quot;table&amp;quot;,{&amp;quot;isNumberColumnEnabled&amp;quot;:false,&amp;quot;layout&amp;quot;:&amp;quot;default&amp;quot;,&amp;quot;__autoSize&amp;quot;:false,&amp;quot;localId&amp;quot;:&amp;quot;bbb435ce-e84e-4e3d-9dc8-f1c0fbe65b8b&amp;quot;,&amp;quot;width&amp;quot;:760},&amp;quot;tableRow&amp;quot;,null,&amp;quot;tableCell&amp;quot;,{&amp;quot;colspan&amp;quot;:1,&amp;quot;rowspan&amp;quot;:1,&amp;quot;colwidth&amp;quot;:null,&amp;quot;background&amp;quot;:null}]&quot;&gt;pssw_exporter&lt;/p&gt;" style="rounded=1;whiteSpace=wrap;html=1;shadow=0;labelBackgroundColor=none;strokeColor=none;strokeWidth=3;fillColor=#2F5B7C;fontFamily=Helvetica;fontSize=16;fontColor=#FFFFFF;align=center;fontStyle=1;spacing=5;arcSize=7;perimeterSpacing=2;" vertex="1" parent="1">
          <mxGeometry x="-80" y="320" width="160" height="40" as="geometry" />
        </mxCell>
        <mxCell id="o7lvHpTq__VK10k64R-0-1796" value="" style="edgeStyle=orthogonalEdgeStyle;rounded=0;orthogonalLoop=1;jettySize=auto;html=1;" edge="1" parent="1" source="o7lvHpTq__VK10k64R-0-1788" target="o7lvHpTq__VK10k64R-0-1787">
          <mxGeometry relative="1" as="geometry" />
        </mxCell>
        <mxCell id="o7lvHpTq__VK10k64R-0-1788" value="&lt;p data-pm-slice=&quot;1 1 [&amp;quot;table&amp;quot;,{&amp;quot;isNumberColumnEnabled&amp;quot;:false,&amp;quot;layout&amp;quot;:&amp;quot;default&amp;quot;,&amp;quot;__autoSize&amp;quot;:false,&amp;quot;localId&amp;quot;:&amp;quot;bbb435ce-e84e-4e3d-9dc8-f1c0fbe65b8b&amp;quot;,&amp;quot;width&amp;quot;:760},&amp;quot;tableRow&amp;quot;,null,&amp;quot;tableCell&amp;quot;,{&amp;quot;colspan&amp;quot;:1,&amp;quot;rowspan&amp;quot;:1,&amp;quot;colwidth&amp;quot;:null,&amp;quot;background&amp;quot;:null}]&quot;&gt;reverser&lt;/p&gt;" style="rounded=1;whiteSpace=wrap;html=1;shadow=0;labelBackgroundColor=none;strokeColor=none;strokeWidth=3;fillColor=#12AAB5;fontFamily=Helvetica;fontSize=16;fontColor=#FFFFFF;align=center;fontStyle=1;spacing=5;arcSize=7;perimeterSpacing=2;" vertex="1" parent="1">
          <mxGeometry x="-40" y="200" width="80" height="40" as="geometry" />
        </mxCell>
        <mxCell id="o7lvHpTq__VK10k64R-0-1802" value="" style="edgeStyle=orthogonalEdgeStyle;rounded=0;orthogonalLoop=1;jettySize=auto;html=1;entryX=0.5;entryY=0;entryDx=0;entryDy=0;" edge="1" parent="1" source="o7lvHpTq__VK10k64R-0-1789" target="o7lvHpTq__VK10k64R-0-1800">
          <mxGeometry relative="1" as="geometry" />
        </mxCell>
        <mxCell id="o7lvHpTq__VK10k64R-0-1789" value="&lt;p data-pm-slice=&quot;1 1 [&amp;quot;table&amp;quot;,{&amp;quot;isNumberColumnEnabled&amp;quot;:false,&amp;quot;layout&amp;quot;:&amp;quot;default&amp;quot;,&amp;quot;__autoSize&amp;quot;:false,&amp;quot;localId&amp;quot;:&amp;quot;bbb435ce-e84e-4e3d-9dc8-f1c0fbe65b8b&amp;quot;,&amp;quot;width&amp;quot;:760},&amp;quot;tableRow&amp;quot;,null,&amp;quot;tableCell&amp;quot;,{&amp;quot;colspan&amp;quot;:1,&amp;quot;rowspan&amp;quot;:1,&amp;quot;colwidth&amp;quot;:null,&amp;quot;background&amp;quot;:null}]&quot;&gt;pssw_importer&lt;/p&gt;" style="rounded=1;whiteSpace=wrap;html=1;shadow=0;labelBackgroundColor=none;strokeColor=none;strokeWidth=3;fillColor=#12AAB5;fontFamily=Helvetica;fontSize=16;fontColor=#FFFFFF;align=center;fontStyle=1;spacing=5;arcSize=7;perimeterSpacing=2;" vertex="1" parent="1">
          <mxGeometry x="-80" y="-160" width="160" height="40" as="geometry" />
        </mxCell>
      </root>
    </mxGraphModel>
  </diagram>
</mxfile>
